  0
SECTION
  2
BLOCKS
  0
ENDSEC
  0
SECTION
  2
ENTITIES
  0
LINE
  8
0
 10
0.236649
 20
-0.57132
 11
0.555557
 21
-0.831467
  0
LINE
  8
0
 10
0.555557
 20
-0.831467
 11
0.437271
 21
-0.437271
  0
LINE
  8
0
 10
0.437271
 20
-0.437271
 11
0.831467
 21
-0.555557
  0
LINE
  8
0
 10
0.831467
 20
-0.555557
 11
0.57132
 21
-0.236649
  0
LINE
  8
0
 10
0.57132
 20
-0.236649
 11
0.980774
 21
-0.195084
  0
LINE
  8
0
 10
0.980774
 20
-0.195084
 11
0.618393
 21
0
  0
LINE
  8
0
 10
0.618393
 20
0
 11
0.980774
 21
0.195084
  0
LINE
  8
0
 10
0.980774
 20
0.195084
 11
0.57132
 21
0.236649
  0
LINE
  8
0
 10
0.57132
 20
0.236649
 11
0.831467
 21
0.555557
  0
LINE
  8
0
 10
0.831467
 20
0.555557
 11
0.437256
 21
0.437271
  0
LINE
  8
0
 10
0.437256
 20
0.437271
 11
0.555557
 21
0.831467
  0
LINE
  8
0
 10
0.555557
 20
0.831467
 11
0.236649
 21
0.57132
  0
LINE
  8
0
 10
0.236649
 20
0.57132
 11
0.195084
 21
0.980774
  0
LINE
  8
0
 10
0.195084
 20
0.980774
 11
0
 21
0.618393
  0
LINE
  8
0
 10
0
 20
0.618393
 11
-0.195084
 21
0.980774
  0
LINE
  8
0
 10
-0.195084
 20
0.980774
 11
-0.236649
 21
0.57132
  0
LINE
  8
0
 10
-0.236649
 20
0.57132
 11
-0.555557
 21
0.831467
  0
LINE
  8
0
 10
-0.555557
 20
0.831467
 11
-0.437271
 21
0.437271
  0
LINE
  8
0
 10
-0.437271
 20
0.437271
 11
-0.831467
 21
0.555557
  0
LINE
  8
0
 10
-0.831467
 20
0.555557
 11
-0.57132
 21
0.236649
  0
LINE
  8
0
 10
-0.57132
 20
0.236649
 11
-0.980774
 21
0.195084
  0
LINE
  8
0
 10
-0.980774
 20
0.195084
 11
-0.618393
 21
0
  0
LINE
  8
0
 10
-0.618393
 20
0
 11
-0.980774
 21
-0.195084
  0
LINE
  8
0
 10
-0.980774
 20
-0.195084
 11
-0.57132
 21
-0.236649
  0
LINE
  8
0
 10
-0.57132
 20
-0.236649
 11
-0.831467
 21
-0.555557
  0
LINE
  8
0
 10
-0.831467
 20
-0.555557
 11
-0.437271
 21
-0.437271
  0
LINE
  8
0
 10
-0.437271
 20
-0.437271
 11
-0.555557
 21
-0.831467
  0
LINE
  8
0
 10
-0.555557
 20
-0.831467
 11
-0.236649
 21
-0.57132
  0
LINE
  8
0
 10
-0.236649
 20
-0.57132
 11
-0.195084
 21
-0.980774
  0
LINE
  8
0
 10
-0.195084
 20
-0.980774
 11
0
 21
-0.618393
  0
LINE
  8
0
 10
0
 20
-0.618393
 11
0.195084
 21
-0.980774
  0
LINE
  8
0
 10
0.195084
 20
-0.980774
 11
0.236649
 21
-0.57132
  0
ENDSEC
  0
SECTION
  2
OBJECTS
  0
DICTIONARY
  0
ENDSEC
  0
EOF
